<svg width="183" height="183" viewBox="0 0 183 183" fill="none" xmlns="http://www.w3.org/2000/svg">
<path d="M177.042 119.728C177.042 119.781 138.74 119.823 91.504 119.823C44.2512 119.823 5.95811 119.78 5.95811 119.728C5.95811 119.675 44.2512 119.633 91.504 119.633C138.74 119.633 177.042 119.675 177.042 119.728Z" fill="#0F0F0F"/>
<path d="M65.4679 62.8045C65.4679 62.8572 63.4765 62.8997 61.021 62.8997C58.5644 62.8997 56.5737 62.8568 56.5737 62.8045C56.5737 62.7518 58.5644 62.7094 61.021 62.7094C63.4768 62.7094 65.4679 62.7518 65.4679 62.8045Z" fill="#0F0F0F"/>
<path d="M63.1511 60.7388C63.1511 60.7915 61.1601 60.834 58.7042 60.834C56.2476 60.834 54.2569 60.7911 54.2569 60.7388C54.2569 60.6861 56.2476 60.6436 58.7042 60.6436C61.1601 60.6436 63.1511 60.6861 63.1511 60.7388Z" fill="#0F0F0F"/>
<path d="M29.7884 134.281C29.7884 134.333 27.0258 134.376 23.6187 134.376C20.2105 134.376 17.4487 134.333 17.4487 134.281C17.4487 134.228 20.2105 134.185 23.6187 134.185C27.0258 134.185 29.7884 134.228 29.7884 134.281Z" fill="#0F0F0F"/>
<path d="M26.5742 132.215C26.5742 132.268 23.8116 132.31 20.4045 132.31C16.9963 132.31 14.2345 132.267 14.2345 132.215C14.2345 132.163 16.9963 132.12 20.4045 132.12C23.8116 132.12 26.5742 132.163 26.5742 132.215Z" fill="#0F0F0F"/>
<path d="M16.4495 107.994C16.6219 102.425 16.5553 82.4495 16.5333 77.0152C16.5304 76.2583 17.1456 75.6456 17.9025 75.6496L51.8772 75.8458C52.6396 75.8502 53.2497 76.4797 53.2303 77.2417L52.4562 107.553C52.4376 108.283 51.8465 108.869 51.1167 108.88L17.8315 109.399C17.0538 109.411 16.4253 108.771 16.4495 107.994Z" fill="#0F0F0F"/>
<g opacity="0.3">
<path d="M35.3728 90.5334L45.7039 93.5006C44.3845 98.0942 40.1524 101.282 35.3728 101.282C29.4762 101.282 24.6241 96.4304 24.6241 90.5338C24.6241 84.6371 29.4762 79.7851 35.3728 79.7851C38.3191 79.7851 41.1399 80.9965 43.1686 83.1336L35.3728 90.5334Z" fill="#FAFAFA"/>
</g>
<path d="M47.0072 95.3445H22.1057L23.7494 87.4952H48.6399L47.0072 95.3445Z" fill="#0F0F0F"/>
<g clip-path="url(#clip0_4008_1733)">
<path d="M26.3058 93.3245C26.22 93.3245 26.1771 93.2978 26.1771 93.2444V93.2311C26.1771 93.1955 26.2157 93.1466 26.2929 93.0843C26.3701 93.022 26.4088 92.9464 26.4088 92.8574V89.0541C26.4088 88.9607 26.3701 88.885 26.2929 88.8272C26.2157 88.7649 26.1771 88.716 26.1771 88.6804V88.6671C26.1771 88.6137 26.22 88.587 26.3058 88.587H27.1167C27.2026 88.587 27.2455 88.6137 27.2455 88.6671V88.6804C27.2455 88.716 27.2026 88.7649 27.1167 88.8272C27.0352 88.885 26.9945 88.9607 26.9945 89.0541V92.7907C26.9945 92.9642 27.0631 93.0509 27.2004 93.0509H28.6293C28.7151 93.0509 28.7923 93.0131 28.861 92.9375C28.9296 92.8619 28.9832 92.7774 29.0219 92.6839C29.0605 92.5905 29.1055 92.506 29.157 92.4304C29.2085 92.3548 29.2579 92.3169 29.3051 92.3169H29.3565C29.4252 92.3169 29.4488 92.357 29.4273 92.4371L29.2664 93.171C29.245 93.2733 29.1913 93.3245 29.1055 93.3245H26.3058ZM31.3852 93.3912C30.8875 93.3912 30.482 93.2244 30.1688 92.8908C29.8598 92.5527 29.7054 92.1479 29.7054 91.6764C29.7054 91.2138 29.8555 90.829 30.1559 90.522C30.4562 90.2106 30.8274 90.055 31.2694 90.055C31.7456 90.055 32.1361 90.2195 32.4407 90.5487C32.7497 90.8735 32.9041 91.2738 32.9041 91.7498C32.9041 92.2169 32.7625 92.6083 32.4794 92.9242C32.1962 93.2355 31.8315 93.3912 31.3852 93.3912ZM31.4624 93.171C31.7156 93.171 31.9237 93.0598 32.0867 92.8374C32.2541 92.615 32.3378 92.3192 32.3378 91.95C32.3378 91.4784 32.2305 91.0825 32.016 90.7622C31.8014 90.4375 31.5311 90.2751 31.205 90.2751C30.9304 90.2751 30.7073 90.3864 30.5356 90.6088C30.364 90.8267 30.2782 91.1203 30.2782 91.4896C30.2782 91.9344 30.3897 92.3258 30.6129 92.6639C30.836 93.002 31.1192 93.171 31.4624 93.171ZM34.6382 93.3846C34.2435 93.3846 33.926 93.3023 33.6857 93.1377C33.4497 92.9731 33.3317 92.8018 33.3317 92.6239C33.3317 92.4593 33.4154 92.377 33.5827 92.377C33.6557 92.377 33.7136 92.4059 33.7565 92.4637C33.8037 92.5171 33.8444 92.5839 33.8788 92.6639C33.9131 92.744 33.9538 92.8241 34.0011 92.9041C34.0526 92.9842 34.132 93.0532 34.2392 93.111C34.3465 93.1644 34.4795 93.1911 34.6382 93.1911C34.8528 93.1911 35.0287 93.1399 35.166 93.0376C35.3033 92.9308 35.372 92.7863 35.372 92.6039C35.372 92.4259 35.3033 92.288 35.166 92.1902C35.033 92.0923 34.87 92.0234 34.6769 91.9833C34.4838 91.9388 34.2907 91.8899 34.0976 91.8365C33.9045 91.7831 33.7393 91.6853 33.602 91.5429C33.469 91.4006 33.4025 91.2093 33.4025 90.9691C33.4025 90.7111 33.5162 90.4953 33.7436 90.3219C33.971 90.1439 34.2607 90.055 34.6125 90.055C34.9858 90.055 35.2883 90.1372 35.52 90.3018C35.7517 90.4664 35.8676 90.6466 35.8676 90.8423C35.8676 90.909 35.844 90.9646 35.7968 91.0091C35.7539 91.0536 35.7002 91.0759 35.6359 91.0759C35.5586 91.0759 35.4921 91.0336 35.4363 90.9491C35.3806 90.8646 35.3334 90.7711 35.2947 90.6688C35.2604 90.5665 35.1875 90.4731 35.0759 90.3886C34.9643 90.3041 34.8185 90.2618 34.6382 90.2618C34.4494 90.2618 34.2907 90.3174 34.162 90.4286C34.0375 90.5398 33.9753 90.6777 33.9753 90.8423C33.9753 91.0158 34.0418 91.1515 34.1748 91.2493C34.3122 91.3428 34.4773 91.4117 34.6704 91.4562C34.8635 91.5007 35.0544 91.5496 35.2433 91.603C35.4363 91.6564 35.5994 91.7565 35.7324 91.9032C35.8697 92.0456 35.9384 92.2391 35.9384 92.4838C35.9384 92.7418 35.8182 92.9575 35.5779 93.131C35.342 93.3 35.0287 93.3846 34.6382 93.3846ZM38.0288 93.3912C37.5311 93.3912 37.1256 93.2244 36.8124 92.8908C36.5034 92.5527 36.349 92.1479 36.349 91.6764C36.349 91.2138 36.4992 90.829 36.7995 90.522C37.0998 90.2106 37.471 90.055 37.913 90.055C38.3892 90.055 38.7797 90.2195 39.0844 90.5487C39.3933 90.8735 39.5478 91.2738 39.5478 91.7498C39.5478 92.2169 39.4062 92.6083 39.123 92.9242C38.8398 93.2355 38.4751 93.3912 38.0288 93.3912ZM38.1061 93.171C38.3592 93.171 38.5673 93.0598 38.7304 92.8374C38.8977 92.615 38.9814 92.3192 38.9814 91.95C38.9814 91.4784 38.8741 91.0825 38.6596 90.7622C38.445 90.4375 38.1747 90.2751 37.8486 90.2751C37.574 90.2751 37.3509 90.3864 37.1792 90.6088C37.0076 90.8267 36.9218 91.1203 36.9218 91.4896C36.9218 91.9344 37.0334 92.3258 37.2565 92.6639C37.4796 93.002 37.7628 93.171 38.1061 93.171ZM40.5674 89.4878C40.4344 89.4878 40.3293 89.45 40.2521 89.3744C40.1748 89.2987 40.1362 89.1986 40.1362 89.0741C40.1362 88.9495 40.1748 88.8494 40.2521 88.7738C40.3336 88.6938 40.4387 88.6537 40.5674 88.6537C40.6919 88.6537 40.7927 88.6938 40.8699 88.7738C40.9472 88.8494 40.9858 88.9495 40.9858 89.0741C40.9858 89.1986 40.9472 89.2987 40.8699 89.3744C40.7927 89.45 40.6919 89.4878 40.5674 89.4878ZM40.1169 94.5523C39.9067 94.5523 39.735 94.5033 39.602 94.4055C39.469 94.3076 39.4025 94.1786 39.4025 94.0184C39.4025 93.9428 39.4261 93.8806 39.4733 93.8316C39.5205 93.7827 39.5827 93.7582 39.6599 93.7582C39.7414 93.7582 39.8058 93.7872 39.853 93.845C39.9002 93.9028 39.9303 93.9673 39.9431 94.0385C39.956 94.1096 39.9839 94.1742 40.0268 94.232C40.0697 94.2898 40.1319 94.3187 40.2135 94.3187C40.3036 94.3187 40.3744 94.2854 40.4258 94.2186C40.4816 94.1519 40.5095 94.0652 40.5095 93.9584C40.5095 93.8472 40.4795 93.7093 40.4194 93.5447C40.3593 93.3801 40.3293 93.2489 40.3293 93.151V90.8623C40.3293 90.76 40.2907 90.6733 40.2135 90.6021C40.1362 90.5309 40.0976 90.482 40.0976 90.4553V90.4353C40.0976 90.4042 40.1276 90.3708 40.1877 90.3352L40.7026 90.0816C40.767 90.0505 40.8163 90.0461 40.8506 90.0683C40.8893 90.0905 40.9086 90.1261 40.9086 90.1751V93.3045C40.9086 93.5625 40.8721 93.8094 40.7991 94.0451C40.6919 94.3832 40.4645 94.5523 40.1169 94.5523ZM44.2054 92.7907C44.214 92.8841 44.2376 92.9575 44.2762 93.0109C44.3148 93.0598 44.3556 93.091 44.3985 93.1043C44.4414 93.1132 44.48 93.1266 44.5143 93.1443C44.5487 93.1621 44.5658 93.1888 44.5658 93.2244C44.5658 93.3178 44.4285 93.3645 44.1539 93.3645C43.9994 93.3645 43.8858 93.3356 43.8128 93.2778C43.7398 93.2155 43.6969 93.0976 43.6841 92.9242C43.521 93.2355 43.2121 93.3912 42.7573 93.3912C42.3968 93.3912 42.1072 93.3023 41.8884 93.1243C41.6695 92.9464 41.5601 92.6995 41.5601 92.3837C41.5559 92.0723 41.6631 91.8299 41.8819 91.6564C42.105 91.4829 42.3904 91.3961 42.738 91.3961C43.0812 91.3961 43.3451 91.4851 43.5296 91.663L43.5167 91.4829C43.4781 91.0736 43.3987 90.7689 43.2786 90.5687C43.1585 90.3686 42.9739 90.2685 42.7251 90.2685C42.5749 90.2685 42.4505 90.3085 42.3518 90.3886C42.2531 90.4687 42.1844 90.5554 42.1458 90.6488C42.1115 90.7422 42.0686 90.829 42.0171 90.909C41.9656 90.9891 41.9055 91.0291 41.8369 91.0291C41.7596 91.0291 41.6974 91.0069 41.6502 90.9624C41.6073 90.9179 41.5859 90.8579 41.5859 90.7823C41.5859 90.5954 41.691 90.4286 41.9012 90.2818C42.1158 90.1306 42.3904 90.055 42.7251 90.055C43.1155 90.055 43.4266 90.1795 43.6583 90.4286C43.8943 90.6733 44.0338 91.018 44.0767 91.4629L44.2054 92.7907ZM42.8989 93.1777C43.1091 93.1777 43.2808 93.1088 43.4138 92.9709C43.5467 92.8285 43.609 92.6528 43.6004 92.4437L43.5747 92.1435C43.5403 91.9833 43.4588 91.8543 43.3301 91.7565C43.2056 91.6586 43.0512 91.6097 42.8667 91.6097C42.6478 91.6097 42.4698 91.6742 42.3325 91.8032C42.1951 91.9322 42.1265 92.099 42.1265 92.3036C42.1265 92.5527 42.1973 92.7618 42.3389 92.9308C42.4848 93.0954 42.6714 93.1777 42.8989 93.1777Z" fill="#FAFAFA"/>
<path d="M30.7517 89.6265C30.6745 89.6487 30.6187 89.6331 30.5843 89.5798C30.5543 89.5264 30.565 89.473 30.6165 89.4196L31.7557 88.5789C31.8544 88.4988 31.9317 88.5144 31.9874 88.6256L32.0904 88.8391C32.1419 88.9414 32.1119 89.0126 32.0003 89.0526L30.7517 89.6265Z" fill="#FD591E"/>
<path d="M37.389 89.6265C37.3118 89.6487 37.256 89.6331 37.2217 89.5798C37.1916 89.5264 37.2024 89.473 37.2539 89.4196L38.3931 88.5789C38.4918 88.4988 38.569 88.5144 38.6248 88.6256L38.7277 88.8391C38.7792 88.9414 38.7492 89.0126 38.6376 89.0526L37.389 89.6265Z" fill="#FD591E"/>
<path d="M42.2162 89.6265C42.1389 89.6487 42.0832 89.6331 42.0488 89.5798C42.0188 89.5264 42.0295 89.473 42.081 89.4196L43.2202 88.5789C43.3189 88.4988 43.3962 88.5144 43.4519 88.6256L43.5549 88.8391C43.6064 88.9414 43.5764 89.0126 43.4648 89.0526L42.2162 89.6265Z" fill="#FD591E"/>
</g>
<path d="M112.165 89.1236L120.679 80.8662H122.064C122.064 80.8662 130.065 91.1238 129.706 91.8931C129.347 92.6624 126.782 93.1239 126.782 93.1239L126.68 95.9447L118.871 100.442L118.474 99.0828L116.731 99.4327C116.731 99.4327 114.218 96.0992 114.218 92.3037C114.217 88.5079 112.165 89.1236 112.165 89.1236Z" fill="#0F0F0F"/>
<path d="M117.126 86.0199C117.28 85.9686 121.295 80.5072 121.448 80.4047C121.602 80.3022 126.987 81.2765 130.218 86.1491C133.449 91.0213 132.014 92.5087 131.449 92.6112C130.885 92.7136 118.781 93.0215 117.858 92.3546C116.935 91.6878 117.126 86.0199 117.126 86.0199Z" fill="#FF725E"/>
<path d="M129.314 84.9442C129.314 84.9442 126.998 86.2435 127.338 87.1567C127.677 88.0698 130.037 92.3649 132.134 91.881C132.288 91.8455 132.361 91.2606 132.258 90.6542C131.981 89.0178 131.214 87.5831 130.244 86.2362L129.314 84.9442Z" fill="#FAFAFA"/>
<g opacity="0.3">
<path d="M118.075 84.4951C118.153 84.4428 119.353 83.06 120.553 83.2687C121.754 83.4773 124.624 85.2092 126.189 86.5843C127.755 87.9593 127.654 88.3619 127.654 88.3619C127.654 88.3619 122.745 85.0427 121.206 84.5471C119.667 84.0515 118.075 84.4951 118.075 84.4951Z" fill="#333333"/>
</g>
<path d="M129.314 84.9442C129.325 84.9361 129.401 85.0189 129.531 85.1751C129.662 85.3303 129.841 85.5627 130.058 85.8544C130.485 86.4404 131.055 87.2723 131.553 88.2697C131.804 88.766 131.993 89.2685 132.153 89.7161C132.324 90.1861 132.34 90.63 132.364 90.9902C132.389 91.3529 132.354 91.6676 132.25 91.8554C132.149 92.0442 132.042 92.1043 132.038 92.0973C132.025 92.086 132.111 92.0069 132.182 91.8254C132.257 91.6442 132.271 91.3576 132.229 91.0004C132.19 90.6428 132.157 90.2102 131.989 89.7791C131.817 89.3285 131.63 88.8447 131.382 88.3539C130.891 87.3715 130.344 86.5341 129.947 85.9313C129.547 85.3303 129.291 84.9621 129.314 84.9442Z" fill="#0F0F0F"/>
<path d="M41.9451 123.978C41.9451 123.978 33.9531 139.57 30.165 142.18L30.7542 143.358C30.7542 143.358 31.0855 143.611 36.055 139.486C41.0246 135.361 43.7205 130.472 46.0757 128.963C48.4309 127.454 49.7797 126.943 49.7797 126.943L41.9451 123.978Z" fill="#0F0F0F"/>
<path d="M69.2084 136.641C68.4449 136.641 65.2732 136.641 65.2732 136.641L73.8778 142.969L74.4521 144.772L71.1647 145.993L70.8536 152.147C70.8536 152.147 74.6947 158.225 75.0472 158.343C75.3997 158.46 83.7291 158.16 83.7291 158.16L85.5155 152.045L85.9492 143.689C85.9492 143.689 73.7911 135.877 73.6147 135.877C73.4375 135.878 69.2084 136.641 69.2084 136.641Z" fill="#0F0F0F"/>
<path d="M70.6631 153.471C72.8164 144.409 67.2165 135.318 58.1552 133.165C49.094 131.011 40.0028 136.611 37.8495 145.673C35.6962 154.734 41.2962 163.825 50.3574 165.978C59.4186 168.132 68.5098 162.532 70.6631 153.471Z" fill="#333333"/>
<path d="M54.2569 159.196C59.5747 159.196 63.8857 154.886 63.8857 149.568C63.8857 144.25 59.5747 139.939 54.2569 139.939C48.9391 139.939 44.6282 144.25 44.6282 149.568C44.6282 154.886 48.9391 159.196 54.2569 159.196Z" fill="#E0E0E0"/>
<path d="M54.2569 155.062C57.2916 155.062 59.7517 152.602 59.7517 149.568C59.7517 146.533 57.2916 144.073 54.2569 144.073C51.2223 144.073 48.7622 146.533 48.7622 149.568C48.7622 152.602 51.2223 155.062 54.2569 155.062Z" fill="#0F0F0F"/>
<path d="M44.7969 132.001C45.4019 131.184 45.7701 135.814 46.8323 136.876C47.894 137.938 51.4182 136.961 56.0353 137.761C63.3985 139.036 65.5608 143.002 67.284 145.005C67.7012 145.49 68.3655 145.684 68.9829 145.516L74.7068 143.955C74.7068 143.955 71.2558 135.46 61.6988 132.629C52.1415 129.797 44.7969 132.001 44.7969 132.001Z" fill="#0F0F0F"/>
<path d="M148.879 167.24C158.639 167.24 166.551 159.328 166.551 149.568C166.551 139.808 158.639 131.895 148.879 131.895C139.119 131.895 131.207 139.808 131.207 149.568C131.207 159.328 139.119 167.24 148.879 167.24Z" fill="#333333"/>
<path d="M148.879 159.658C154.452 159.658 158.969 155.14 158.969 149.568C158.969 143.995 154.452 139.477 148.879 139.477C143.306 139.477 138.789 143.995 138.789 149.568C138.789 155.14 143.306 159.658 148.879 159.658Z" fill="#E0E0E0"/>
<path d="M91.7452 154.993C91.93 155.004 94.5704 158.858 94.5704 158.858H96.314V160.289C96.314 160.289 102.375 160.02 103.62 159.854C104.866 159.688 106.36 158.941 106.36 158.941C106.36 158.941 116.074 158.168 118.648 157.641C121.221 157.114 123.465 155.638 123.465 155.638C123.465 155.638 93.1591 152.88 92.9098 153.046C92.6606 153.212 91.7452 154.993 91.7452 154.993Z" fill="#0F0F0F"/>
<path d="M118.488 100.77C118.628 101.613 123.55 113.002 123.55 113.002L119.894 115.392L126.221 126.359L122.355 143.091C122.355 143.091 111.739 143.231 101.756 139.998L95.2888 128.047C95.2888 128.047 96.8356 124.11 97.2572 119.892C97.2572 119.892 99.7881 119.189 100.069 117.361C100.35 115.533 98.3819 112.862 98.3819 112.862C98.3819 112.862 89.1023 108.784 68.1529 106.957C68.1529 106.957 55.0768 104.566 54.2335 104.707C53.3899 104.847 51.9841 107.755 51.9841 107.755C51.9841 107.755 40.4547 107.8 39.33 112.018C39.33 112.018 38.2053 115.111 51.1404 121.298C64.0756 127.484 78.417 132.967 78.417 132.967C78.417 132.967 79.5417 138.591 81.6509 139.857C83.7598 141.122 105.272 148.293 113.146 147.871C121.019 147.45 123.409 146.325 128.19 143.232C132.97 140.138 138.313 130.859 139.86 127.625C141.407 124.391 134.517 121.157 130.299 116.096C126.081 111.034 120.457 99.0828 120.457 99.0828L118.488 100.77Z" fill="#0F0F0F"/>
<g opacity="0.3">
<path d="M131.207 151.169C131.207 151.169 137.604 145.447 139.362 143.809C141.121 142.172 141.256 141.698 141.256 141.698L145.322 145.631L146.13 144.507L140.493 138.729L130.839 148.26L131.207 150.763" fill="#333333"/>
</g>
<path d="M148.022 126.522C148.022 126.522 156.861 127.785 161.323 133.088C165.784 138.392 164.521 138.897 164.521 138.897C164.521 138.897 157.871 137.129 153.914 138.897C149.958 140.665 150.042 143.948 150.042 143.948L146.675 145.631L140.081 138.223L145.581 126.522H148.022Z" fill="#FF725E"/>
<g opacity="0.3">
<path d="M141.93 140.29C141.93 140.29 143.647 137.213 145.269 134.589C147.05 131.708 150.151 126.963 150.151 126.963L147.573 126.206L140.493 138.73L141.93 140.29Z" fill="#333333"/>
</g>
<path d="M127.817 94.869C128.407 94.869 131.185 96.1317 134.468 99.4989C137.751 102.866 154.925 122.397 155.009 123.996C155.012 124.053 155.013 124.11 155.013 124.165C155.005 125.48 153.889 126.522 152.574 126.522H149.621L147.432 128.037C147.432 128.037 142.044 140.549 132.447 147.889C132.447 147.889 131.016 149.335 130.259 151.103C129.501 152.871 128.743 155.06 127.817 155.481C126.891 155.902 86.4836 155.565 85.9785 154.218C85.4734 152.871 84.7158 150.262 84.5475 148.578C84.3791 146.894 80.5906 142.685 76.1291 140.664C71.6672 138.644 40.3511 124.164 39.9302 122.481C39.5093 120.797 37.325 114.149 39.5115 111.538C41.698 108.927 75.6105 125.26 83.3686 132.414C83.5644 132.595 93.218 141.506 93.218 141.506C93.218 141.506 111.233 144.705 111.907 144.873C112.58 145.042 125.039 144.537 125.039 144.537L130.006 134.519L133.542 126.606L124.787 112.378C124.787 112.378 119.689 99.0821 120.073 99.0821C120.456 99.0824 127.817 94.869 127.817 94.869Z" fill="#FF725E"/>
<path d="M41.896 138.767L37.6252 147.889L62.8283 158.343L66.3638 149.841L41.896 138.767Z" fill="#0F0F0F"/>
<path d="M36.4005 140.021L40.746 141.223L38.9611 145.035L35.4449 144.083L36.4005 140.021Z" fill="#0F0F0F"/>
<path d="M65.1853 152.674L77.6026 157.593H88.5874V154.978H90.8811V159.364H85.3281V160.289H77.8039L64.0471 155.412L65.1853 152.674Z" fill="#0F0F0F"/>
<path d="M39.5397 121.039C39.5584 121.109 43.8768 123.533 45.6479 123.641C47.4186 123.749 48.1052 122.593 48.5027 121.726C48.9002 120.858 49.3339 119.377 49.3339 119.377C49.3339 119.377 39.4094 111.645 39.3047 111.817C38.5815 113.011 38.4995 113.391 38.5006 115.835C38.501 116.853 39.4822 121.031 39.5397 121.039Z" fill="#FAFAFA"/>
<g opacity="0.3">
<path d="M78.7493 142.135C78.5557 141.975 97.0196 148.745 98.5126 149.199C100.005 149.653 101.564 154.392 101.564 154.392C101.564 154.392 99.746 150.822 97.4091 149.913C95.0722 149.004 81.9005 144.743 78.7493 142.135Z" fill="#333333"/>
</g>
<g opacity="0.3">
<path d="M130.016 112.482L145.676 120.494C145.676 120.494 143.08 115.984 135.83 112.571C131.538 110.55 124.438 106.881 124.438 106.881L124.781 107.482C126.004 109.622 127.823 111.36 130.016 112.482Z" fill="#333333"/>
</g>
<path d="M97.2568 119.891C97.2572 119.895 97.2147 119.904 97.1309 119.918C97.0376 119.933 96.9146 119.954 96.759 119.979C96.4198 120.029 95.9392 120.099 95.3262 120.189C94.081 120.365 92.2777 120.611 90.0466 120.892C87.8151 121.171 85.1565 121.492 82.1944 121.766C81.4533 121.83 80.6946 121.9 79.9161 121.944C79.5274 121.971 79.1339 121.992 78.7357 122.002C78.343 122.018 77.9243 122.028 77.5214 121.956C75.9014 121.697 74.3284 121.073 72.7447 120.414C69.5843 119.058 66.6929 117.519 64.0837 116.092C61.4781 114.657 59.1676 113.302 57.2417 112.14C56.2791 111.559 55.4128 111.025 54.6566 110.55C53.8994 110.075 53.268 109.621 52.8178 109.175C52.3625 108.738 52.0986 108.292 52.0452 107.958C51.9844 107.617 52.1305 107.456 52.1283 107.466C52.14 107.465 52.0123 107.625 52.0829 107.951C52.1462 108.271 52.4119 108.698 52.8694 109.122C53.3222 109.554 53.9521 109.994 54.7126 110.459C55.4735 110.926 56.3442 111.451 57.3105 112.024C59.244 113.17 61.5601 114.513 64.1678 115.938C66.7785 117.355 69.6699 118.887 72.819 120.238C74.3943 120.895 75.9655 121.516 77.547 121.77C77.9419 121.841 78.3313 121.832 78.7299 121.818C79.1252 121.808 79.5172 121.788 79.9047 121.762C80.6803 121.72 81.4387 121.652 82.1787 121.59C85.1378 121.327 87.7975 121.019 90.0301 120.758C92.2532 120.488 94.0565 120.268 95.3163 120.115C95.9315 120.041 96.4135 119.982 96.7536 119.941C96.9102 119.924 97.0339 119.91 97.128 119.899C97.2129 119.891 97.2564 119.888 97.2568 119.891Z" fill="#333333"/>
<path d="M98.3899 116.263C98.391 116.266 98.3522 116.28 98.2761 116.305C98.1897 116.331 98.0774 116.365 97.9357 116.409C97.6356 116.498 97.1946 116.636 96.613 116.763C95.4572 117.038 93.7531 117.34 91.6252 117.433C91.0937 117.469 90.5359 117.456 89.9551 117.467C89.3746 117.448 88.7696 117.445 88.1456 117.397C86.8964 117.322 85.5653 117.178 84.1774 116.947C81.3988 116.499 78.3965 115.717 75.3173 114.699C72.2345 113.684 69.3533 112.565 66.7269 111.572C64.1027 110.57 61.727 109.713 59.7133 109.032C58.7104 108.68 57.8134 108.317 57.0689 107.91C56.3212 107.511 55.729 107.069 55.3059 106.646C54.8744 106.229 54.631 105.827 54.4637 105.564C54.3978 105.431 54.3451 105.325 54.3049 105.244C54.2701 105.171 54.254 105.134 54.2569 105.132C54.2866 105.11 54.5032 105.766 55.3575 106.593C55.7828 107.002 56.3735 107.429 57.1191 107.816C57.8609 108.21 58.7547 108.561 59.7575 108.904C61.7742 109.568 64.162 110.414 66.7888 111.407C69.4196 112.391 72.3004 113.504 75.377 114.517C78.4503 115.534 81.4398 116.317 84.206 116.773C85.5876 117.008 86.9126 117.158 88.1559 117.239C88.777 117.29 89.379 117.296 89.9569 117.319C90.5352 117.312 91.0908 117.33 91.62 117.298C93.7392 117.223 95.4392 116.942 96.5969 116.69C97.1792 116.575 97.6224 116.449 97.9251 116.372C98.0686 116.336 98.1828 116.307 98.2703 116.286C98.3486 116.268 98.3888 116.26 98.3899 116.263Z" fill="#333333"/>
<path d="M77.4712 122.005C77.4741 122 77.5356 122.023 77.6495 122.074C77.7819 122.136 77.9448 122.212 78.1428 122.304C78.5703 122.506 79.1885 122.798 79.9633 123.136C81.5075 123.821 83.6742 124.693 86.1077 125.544C88.5438 126.39 90.783 127.055 92.4187 127.478C93.2348 127.696 93.9009 127.851 94.361 127.959C94.5737 128.01 94.7486 128.051 94.8906 128.085C95.0114 128.116 95.0743 128.136 95.0729 128.142C95.0718 128.148 95.0063 128.141 94.8833 128.123C94.7391 128.098 94.5616 128.068 94.3456 128.031C93.8801 127.946 93.2077 127.81 92.3857 127.608C90.7376 127.218 88.4864 126.572 86.0448 125.724C83.6057 124.87 81.4409 123.977 79.9073 123.258C79.138 122.905 78.5271 122.593 78.1092 122.371C77.9174 122.265 77.7596 122.178 77.6312 122.108C77.5236 122.047 77.4683 122.011 77.4712 122.005Z" fill="#333333"/>
<path d="M94.0598 140.974C94.0569 140.976 94.0265 140.93 93.9701 140.841C93.9101 140.743 93.8281 140.611 93.7235 140.442C93.5046 140.081 93.1902 139.563 92.788 138.9C91.9707 137.564 90.7987 135.622 89.1851 133.337C88.3766 132.196 87.4502 130.974 86.3657 129.739C85.2839 128.504 84.042 127.254 82.6025 126.098C81.1689 124.937 79.5307 123.885 77.7439 122.966C75.9582 122.044 74.0326 121.242 72.0299 120.507C63.9955 117.594 56.4518 115.779 50.9582 114.722C48.2091 114.193 45.9707 113.841 44.4214 113.616C43.6539 113.505 43.0544 113.419 42.6368 113.359C42.4399 113.329 42.2858 113.306 42.1727 113.289C42.0684 113.272 42.015 113.262 42.0153 113.259C42.0157 113.256 42.0699 113.259 42.1749 113.27C42.2887 113.282 42.4432 113.299 42.6412 113.321C43.0504 113.37 43.6557 113.433 44.4313 113.542C45.9846 113.745 48.2278 114.077 50.9827 114.589C56.4881 115.614 64.0467 117.41 72.095 120.328C74.1026 121.065 76.0354 121.871 77.8292 122.8C79.6244 123.726 81.2721 124.788 82.7127 125.961C84.1591 127.128 85.4032 128.389 86.4847 129.635C87.5684 130.88 88.4915 132.111 89.2948 133.259C90.8983 135.559 92.053 137.514 92.8513 138.861C93.2403 139.532 93.5445 140.056 93.7564 140.421C93.8541 140.595 93.9306 140.731 93.9866 140.83C94.0382 140.924 94.0627 140.972 94.0598 140.974Z" fill="#333333"/>
<path d="M148.879 155.326C152.059 155.326 154.637 152.748 154.637 149.568C154.637 146.388 152.059 143.809 148.879 143.809C145.699 143.809 143.121 146.388 143.121 149.568C143.121 152.748 145.699 155.326 148.879 155.326Z" fill="#0F0F0F"/>
<path d="M145.563 120.38C145.558 120.384 145.499 120.317 145.393 120.186C145.284 120.057 145.136 119.856 144.929 119.611C144.525 119.114 143.92 118.411 143.108 117.604C142.299 116.796 141.262 115.907 140.023 115.04C138.783 114.176 137.337 113.344 135.759 112.599C132.585 111.117 129.756 109.679 127.717 108.627C126.715 108.102 125.897 107.675 125.309 107.367C125.041 107.222 124.825 107.105 124.659 107.015C124.512 106.933 124.436 106.887 124.439 106.881C124.441 106.875 124.523 106.91 124.677 106.981C124.846 107.062 125.068 107.169 125.343 107.301C125.938 107.596 126.764 108.005 127.778 108.507C129.833 109.528 132.667 110.946 135.84 112.427C137.428 113.176 138.88 114.019 140.124 114.896C141.366 115.777 142.402 116.684 143.204 117.509C144.009 118.332 144.6 119.052 144.988 119.565C145.186 119.818 145.325 120.026 145.424 120.163C145.52 120.302 145.569 120.376 145.563 120.38Z" fill="#0F0F0F"/>
<path d="M138.555 117.139C138.097 117.145 137.842 117.67 138.127 118.029C138.932 119.04 140.708 120.829 143.822 121.894C148.346 123.442 149.042 122.644 148.565 122.168C148.129 121.732 142.299 117.095 138.555 117.139Z" fill="#FAFAFA"/>
<path d="M39.5928 121.236C39.58 121.239 39.5364 121.109 39.4691 120.873C39.4017 120.636 39.3099 120.293 39.2008 119.868C38.9878 119.018 38.6595 117.847 38.4838 116.51C38.3941 115.843 38.3407 115.201 38.3659 114.613C38.3908 114.025 38.4944 113.501 38.6353 113.079C38.777 112.657 38.9494 112.337 39.0873 112.132C39.2257 111.926 39.3223 111.828 39.3304 111.834C39.3626 111.854 39.0072 112.283 38.7638 113.119C38.643 113.534 38.5559 114.046 38.5409 114.619C38.5259 115.191 38.5834 115.824 38.6719 116.484C38.8454 117.805 39.1521 118.98 39.3318 119.839C39.4241 120.268 39.4954 120.616 39.5408 120.857C39.5866 121.098 39.6056 121.233 39.5928 121.236Z" fill="#0F0F0F"/>
<g opacity="0.3">
<path d="M52.4628 121.925L76.785 134.823C76.785 134.823 76.9072 135.158 74.7068 134.403C72.5061 133.649 55.5742 125.135 52.4628 121.925Z" fill="#333333"/>
</g>
<path d="M21.8235 108.773L23.473 110.567H43.9174C43.9174 110.567 47.5723 108.372 47.7985 108.368C48.0247 108.365 21.8235 108.773 21.8235 108.773Z" fill="#0F0F0F"/>
<path d="M101.142 51.0219C102.154 47.1829 99.6948 44.2534 95.9495 42.9355L95.5773 42.8044C91.4821 41.6266 88.5486 43.4036 87.4843 47.5295L83.3631 61.096L83.1695 61.757L91.7756 66.8719L92.9611 63.4615C92.9611 63.4615 97.0295 64.2191 98.4346 60.3794C99.1132 58.5252 100.2 54.5926 101.142 51.0219Z" fill="#A2675F"/>
<path d="M98.8196 54.3623C98.7278 54.6566 98.4024 54.8217 98.0931 54.7309C97.7842 54.6405 97.6082 54.329 97.7 54.0348C97.7923 53.7401 98.1173 53.5751 98.4262 53.6655C98.7355 53.7559 98.9115 54.0681 98.8196 54.3623Z" fill="#0F0F0F"/>
<path d="M99.6483 52.6173C99.5549 52.6652 99.2464 52.2095 98.6527 52.0024C98.0631 51.7872 97.5211 51.9391 97.4823 51.8439C97.4621 51.8007 97.5774 51.6953 97.815 51.6243C98.0496 51.5526 98.4148 51.531 98.7834 51.6624C99.152 51.7941 99.4144 52.0393 99.544 52.2414C99.6775 52.4452 99.6936 52.5968 99.6483 52.6173Z" fill="#0F0F0F"/>
<path d="M93.5507 52.6151C93.4588 52.9097 93.1335 53.0744 92.8242 52.9836C92.5153 52.8932 92.3392 52.5817 92.4311 52.2871C92.5233 51.9929 92.8487 51.8274 93.1572 51.9178C93.4665 52.0086 93.6429 52.3204 93.5507 52.6151Z" fill="#0F0F0F"/>
<path d="M93.7838 50.6775C93.6901 50.725 93.3812 50.2694 92.7883 50.0626C92.1991 49.8474 91.6566 49.9993 91.6179 49.9037C91.5977 49.8605 91.7123 49.7551 91.9509 49.6841C92.1855 49.6124 92.5504 49.5908 92.9193 49.7222C93.2879 49.854 93.5507 50.0992 93.6803 50.3012C93.8124 50.5054 93.8285 50.657 93.7838 50.6775Z" fill="#0F0F0F"/>
<path d="M94.3881 55.8296C94.3973 55.7949 94.7881 55.8608 95.4118 55.9947C95.5685 56.0324 95.7225 56.0529 95.7844 55.9585C95.8583 55.8618 95.8525 55.6763 95.8411 55.4743C95.8276 55.0581 95.814 54.6218 95.799 54.1643C95.7548 52.3047 95.78 50.7975 95.8547 50.796C95.9297 50.7949 96.026 52.3014 96.0702 54.1607C96.0776 54.6178 96.0849 55.0541 96.0911 55.471C96.0878 55.6631 96.1178 55.893 95.9608 56.0924C95.8803 56.1912 95.7401 56.2341 95.634 56.226C95.5264 56.2216 95.4407 56.1931 95.3646 56.1715C94.7519 55.9925 94.3786 55.864 94.3881 55.8296Z" fill="#0F0F0F"/>
<path d="M92.4995 55.6258C92.598 55.654 92.3729 56.2978 92.7627 56.9481C93.1514 57.5996 93.8625 57.7687 93.8358 57.8606C93.8303 57.9041 93.6389 57.9316 93.3468 57.8379C93.0595 57.7478 92.6771 57.5107 92.4384 57.1128C92.2013 56.7143 92.1881 56.2901 92.2591 56.0185C92.329 55.7407 92.4567 55.6067 92.4995 55.6258Z" fill="#0F0F0F"/>
<path d="M94.7541 48.4086C94.6388 48.5492 94.0741 48.2644 93.3494 48.1037C92.6276 47.9281 91.9952 47.9347 91.9538 47.7575C91.9374 47.6737 92.0882 47.5566 92.37 47.4804C92.6496 47.404 93.0603 47.382 93.494 47.4826C93.9273 47.584 94.2864 47.7846 94.5034 47.9767C94.7226 48.1693 94.8064 48.3409 94.7541 48.4086Z" fill="#0F0F0F"/>
<path d="M100.326 50.9446C100.175 51.0427 99.8155 50.7591 99.3269 50.5797C98.8445 50.3832 98.3885 50.351 98.3424 50.1768C98.3244 50.0937 98.4372 49.9817 98.6637 49.9184C98.8873 49.8543 99.2233 49.8558 99.5571 49.985C99.8906 50.1145 100.14 50.3393 100.262 50.5373C100.387 50.7364 100.395 50.8952 100.326 50.9446Z" fill="#0F0F0F"/>
<path d="M86.7834 51.5017C86.9686 50.8978 86.6209 50.2474 86.0082 50.0951C85.2648 49.9103 84.3205 50.0373 83.8451 51.5401C83.0015 54.2064 85.8523 54.5036 85.8812 54.4286C85.9006 54.3777 86.4401 52.6205 86.7834 51.5017Z" fill="#A2675F"/>
<path d="M85.6184 53.2417C85.6092 53.2296 85.5617 53.2596 85.4716 53.2706C85.3841 53.2815 85.2447 53.264 85.1221 53.1677C84.8732 52.9752 84.7773 52.4529 84.9168 51.9683C84.9867 51.7235 85.1107 51.5086 85.2571 51.3447C85.4002 51.1752 85.5697 51.079 85.7194 51.0987C85.8709 51.1104 85.9445 51.2272 85.9533 51.3128C85.9653 51.3985 85.9317 51.4464 85.9445 51.4556C85.9496 51.4647 86.0159 51.4289 86.0294 51.3121C86.0349 51.2557 86.0235 51.1829 85.9771 51.1119C85.9295 51.0394 85.8438 50.9831 85.7417 50.9626C85.5316 50.9117 85.2868 51.0424 85.1257 51.2224C84.9534 51.3999 84.8084 51.6397 84.7297 51.9145C84.5767 52.4573 84.6928 53.0469 85.043 53.2804C85.215 53.3888 85.3893 53.3818 85.4903 53.3445C85.5931 53.3046 85.6261 53.2493 85.6184 53.2417Z" fill="#FF9A6C"/>
<path d="M105.325 127.042L102.682 140.127L119.898 143.651C120.12 142.077 111.861 137.135 111.861 137.135L113.918 128.824L105.325 127.042Z" fill="#333333"/>
<g opacity="0.6">
<path d="M106.683 135.341C106.333 135.359 106.029 135.665 106.04 135.999C106.051 136.333 106.384 136.635 106.735 136.623C107.086 136.611 107.463 136.253 107.413 135.922C107.362 135.591 106.952 135.256 106.615 135.348" fill="#FAFAFA"/>
</g>
<path d="M111.881 137.168C111.862 137.247 111.434 137.197 110.968 137.367C110.496 137.526 110.211 137.827 110.14 137.78C110.066 137.748 110.29 137.299 110.859 137.102C111.426 136.9 111.914 137.099 111.881 137.168Z" fill="#0F0F0F"/>
<path d="M113.706 138.3C113.71 138.381 113.317 138.442 112.962 138.719C112.598 138.987 112.451 139.335 112.368 139.315C112.286 139.311 112.325 138.834 112.773 138.497C113.219 138.156 113.72 138.224 113.706 138.3Z" fill="#0F0F0F"/>
<path d="M114.334 140.552C114.254 140.554 114.219 140.133 114.526 139.742C114.829 139.349 115.261 139.259 115.283 139.332C115.317 139.407 115.013 139.588 114.767 139.913C114.513 140.231 114.419 140.561 114.334 140.552Z" fill="#0F0F0F"/>
<path d="M112.247 135.514C112.197 135.58 111.834 135.391 111.353 135.324C110.873 135.248 110.472 135.323 110.442 135.247C110.405 135.179 110.827 134.959 111.394 135.045C111.96 135.127 112.302 135.461 112.247 135.514Z" fill="#0F0F0F"/>
<g opacity="0.3">
<path d="M73.4489 112.099C73.4489 112.099 77.8299 115.623 86.906 115.972C95.982 116.321 99.122 114.035 99.122 114.035L98.0763 112.76L73.4489 112.099Z" fill="#333333"/>
</g>
<path d="M88.1866 98.663C89.0273 98.8032 109.153 99.1274 113.718 99.4773C118.283 99.8272 119.876 100.976 120.901 103.457C121.926 105.939 121.363 110.165 119.628 114.083C117.893 118 112.762 135.735 112.762 135.735L103.301 133.566C103.301 133.566 106.122 117.172 107.804 114.083C109.485 110.994 109.485 110.994 109.485 110.994C109.485 110.994 100.1 114.072 93.0939 114.353C86.088 114.633 81.6173 114.404 79.0168 112.208C76.4164 110.013 72.0727 107.911 72.2129 101.465L88.1866 98.663Z" fill="#0F0F0F"/>
<path d="M114.159 107.422C114.174 107.444 113.89 107.672 113.423 108.029C112.902 108.425 112.281 108.897 111.595 109.418C110.909 109.941 110.289 110.413 109.768 110.81C109.299 111.165 109.003 111.378 108.986 111.357C108.97 111.337 109.236 111.087 109.684 110.705C110.132 110.323 110.764 109.811 111.48 109.266C112.195 108.722 112.857 108.25 113.345 107.919C113.832 107.59 114.144 107.401 114.159 107.422Z" fill="#333333"/>
<path d="M113.946 108.907C113.97 108.954 112.755 109.622 111.232 110.399C109.709 111.177 108.455 111.769 108.431 111.722C108.407 111.675 109.622 111.007 111.145 110.23C112.668 109.452 113.923 108.86 113.946 108.907Z" fill="#333333"/>
<path d="M92.3967 39.9899C92.9717 40.1235 102.49 42.3414 103.631 51.9186C104.771 61.4957 99.8192 67.3671 96.8359 66.56C95.4766 66.1922 91.5703 61.0016 88.6617 59.5112C85.7531 58.0212 79.4762 55.3963 79.4762 55.3963C79.4762 55.3963 78.2585 49.3741 81.6795 44.4273C85.1001 39.4804 89.6341 39.3487 92.3967 39.9899Z" fill="#FF725E"/>
<path d="M97.0577 49.7595C99.3423 49.9411 103.805 53.8953 103.805 53.8953C104.189 56.4947 103.447 60.4965 103.275 60.4215C103.275 60.4215 95.6439 54.7379 95.0132 53.1637C94.4401 51.7345 94.7731 49.5784 97.0577 49.7595Z" fill="#333333"/>
<path d="M79.2427 53.4488C83.0688 54.0545 86.496 56.2666 89.5781 58.5212C92.8425 60.9086 95.3229 63.5994 98.1151 66.5172C97.688 66.6358 97.2374 66.7185 96.8359 66.56C95.4352 66.0063 91.5348 61.94 88.6306 60.0009C85.9097 58.1841 79.4762 55.3963 79.4762 55.3963C79.4762 55.3963 79.1695 54.6573 79.2427 53.4488Z" fill="#0F0F0F"/>
<g opacity="0.3">
<path d="M89.7465 40.3014C87.3792 40.3925 85.177 41.6113 83.556 43.3564C82.9711 43.9859 82.4269 44.6901 82.193 45.5209C81.9591 46.3513 82.0934 47.3337 82.7134 47.9281C83.3828 48.57 84.4538 48.6103 85.3135 48.2714C86.1732 47.9328 86.8705 47.2828 87.5435 46.6452C88.2166 46.0077 88.9091 45.354 89.7641 45.0045C91.1022 44.4573 92.6174 44.7358 94.0239 45.0638C95.4308 45.3917 96.9036 45.7617 98.2963 45.3781C98.6161 45.2899 98.9558 45.134 99.0846 44.8255C99.2943 44.3215 98.8259 43.8062 98.3896 43.4826C96.2027 41.8602 93.8204 40.7065 91.1274 40.3764C91.1274 40.3764 90.6245 40.2677 89.7465 40.3014Z" fill="#FAFAFA"/>
</g>
<g opacity="0.3">
<path d="M101.232 51.8556L101.305 58.9143L99.4115 57.4078L99.3415 50.6291L101.232 51.8556Z" fill="#FAFAFA"/>
</g>
<g opacity="0.3">
<path d="M98.7581 50.3188L98.5916 56.7326L97.5723 55.8644L97.7586 49.9059C97.7586 49.9059 98.5909 50.2342 98.7581 50.3188Z" fill="#FAFAFA"/>
</g>
<path d="M114.927 88.7762C114.435 89.08 113.425 89.6685 112.617 90.1334C112.116 90.4218 111.64 90.8313 111.491 91.3895C111.417 91.6651 111.436 91.9806 111.609 92.2067C111.848 92.5186 112.302 92.5716 112.689 92.5076C113.077 92.4432 114.827 91.5091 115.593 90.9462L114.927 88.7762Z" fill="#333333"/>
<path d="M110.256 88.0537C110.367 88.0259 114.449 85.5514 115.088 85.61C115.727 85.6685 118.949 86.9151 119.088 87.4429C119.226 87.9707 118.504 89.1924 118.504 89.1924H118.366C118.366 89.1924 118.921 89.7201 118.504 90.2754C118.088 90.8309 117.605 91.2196 117.605 91.2196C117.605 91.2196 118.421 91.9696 117.727 92.6082C117.033 93.2469 115.783 92.497 115.783 92.497C115.783 92.497 114.867 93.0456 114.367 92.7715C113.867 92.497 114.214 92.0816 114.214 92.0816L115.117 91.3584C115.117 91.3584 115.366 91.5044 115.033 90.6538C114.7 89.8032 114.365 89.7864 113.685 89.7948C113.006 89.8032 111.978 90.3584 111.784 90.914C111.589 91.4696 110.256 92.3304 110.256 92.3304V88.0537H110.256Z" fill="#A2675F"/>
<path d="M92.9907 65.3087C92.9907 65.3087 94.8884 72.8519 94.9649 76.2228C95.0802 81.2988 94.0748 97.0182 94.857 97.3443C96.811 98.1594 96.811 98.9236 96.811 98.9236C96.811 98.9236 94.7259 100.449 89.7348 103.328C84.7436 106.208 81.48 113.927 80.9039 113.859C80.3279 113.791 73.2414 112.688 71.056 107.494C69.6465 104.144 70.7544 99.014 70.7544 99.014C70.7544 99.014 75.0699 70.6676 76.0643 67.7407C76.7282 65.7867 78.3332 64.2883 83.0531 63.1965C87.537 62.1603 90.3365 62.918 92.9907 65.3087Z" fill="#FF725E"/>
<g opacity="0.3">
<path d="M80.9665 81.9972C80.9665 81.9972 83.5959 92.7144 84.2342 93.6243C84.8721 94.5341 72.1437 98.8723 72.334 99.0147C72.524 99.1571 82.35 96.5025 84.2342 95.6233L85.1891 95.0407C85.1891 95.0407 86.2021 96.9146 89.1151 97.8139C92.0281 98.7135 97.4717 96.4582 97.4717 96.4582L80.9665 81.9972Z" fill="#333333"/>
</g>
<path d="M83.3148 90.9861C83.3221 90.9971 83.1596 91.1227 82.8587 91.3408C82.5586 91.5597 82.1165 91.866 81.5642 92.2353C80.46 92.9742 78.9045 93.9515 77.1367 94.9452C75.3674 95.9377 73.723 96.7572 72.5174 97.3154C71.9146 97.5946 71.4231 97.8128 71.0801 97.9548C70.7372 98.0982 70.5454 98.1715 70.5399 98.1597C70.5344 98.1477 70.7163 98.0514 71.0494 97.8874C71.4128 97.7088 71.8872 97.4753 72.4592 97.1939C73.648 96.6057 75.2785 95.7694 77.0437 94.779C78.8075 93.7879 80.3703 92.8311 81.4914 92.1222C82.0294 91.7804 82.4759 91.4967 82.8177 91.2793C83.1303 91.0802 83.3075 90.9752 83.3148 90.9861Z" fill="#0F0F0F"/>
<path d="M76.6906 66.3269C75.4956 66.3884 74.2651 66.3408 73.1568 65.8895C72.0486 65.4382 71.0743 64.5199 70.821 63.3502C70.6259 62.4487 70.8763 61.4917 71.3521 60.7015C71.8279 59.9113 72.5134 59.2689 73.2355 58.6947C74.7493 57.4913 76.4644 56.5419 78.2881 55.8981C79.1135 55.6067 80.0149 55.3769 80.8553 55.6214C81.4431 55.7923 81.9405 56.1792 82.4217 56.5576C84.4022 58.1142 86.3826 59.6712 88.363 61.2278C90.2746 62.7302 92.2843 64.3699 93.0324 66.6834L92.6675 69.1312L87.6285 66.0604L76.6906 66.3269Z" fill="#FF725E"/>
<path d="M81.0112 81.827C80.9716 81.8618 80.1503 80.9998 79.1764 79.9018C78.2021 78.8035 77.4449 77.8848 77.484 77.85C77.5236 77.8153 78.3449 78.6768 79.3188 79.7756C80.2931 80.8736 81.0507 81.7922 81.0112 81.827Z" fill="#0F0F0F"/>
<path d="M83.5666 62.8082C83.5728 62.8371 83.0772 62.9586 82.2878 63.1855C81.5009 63.4157 80.4135 63.7576 79.3096 64.3377C78.761 64.6327 78.2695 64.9661 77.8533 65.3068C77.4434 65.6553 77.1081 66.0077 76.8611 66.3316C76.3644 66.9787 76.1664 67.4545 76.1295 67.4362C76.1174 67.4307 76.1635 67.3122 76.2579 67.0999C76.304 66.9934 76.3615 66.8627 76.4504 66.7236C76.5383 66.5842 76.6217 66.4133 76.7528 66.2508C76.9914 65.9093 77.3252 65.5371 77.7391 65.1725C78.1593 64.8157 78.66 64.4694 79.2196 64.169C80.3454 63.5775 81.4522 63.2529 82.2526 63.0549C82.6538 62.9564 82.9813 62.8883 83.209 62.8499C83.4367 62.8111 83.5637 62.7954 83.5666 62.8082Z" fill="#0F0F0F"/>
<g opacity="0.3">
<path d="M80.7795 63.6511C79.5336 63.8 78.3222 64.1514 77.092 64.3992C75.8619 64.6473 74.5831 64.7912 73.3574 64.5229C72.3509 64.3029 71.3802 63.7667 70.7643 62.956C70.7745 63.0882 70.7924 63.2199 70.8206 63.3502C71.0735 64.5199 72.0482 65.4379 73.1564 65.8895C74.2647 66.3408 75.4952 66.3884 76.6902 66.3269L76.7553 66.3254C76.9014 66.1647 77.0397 65.9942 77.1817 65.8324C78.1216 64.7615 79.3956 63.9889 80.7795 63.6511Z" fill="#333333"/>
</g>
<path d="M89.4149 66.7719C89.3889 66.8093 88.8794 66.2903 87.8312 65.8573C87.3111 65.6406 86.6553 65.465 85.913 65.4148C85.1726 65.3628 84.3451 65.4532 83.5399 65.7438C82.7383 66.0458 82.0502 66.5143 81.5203 67.0344C80.9881 67.5544 80.6035 68.1141 80.3483 68.6162C79.8319 69.6256 79.7814 70.3511 79.7375 70.3397C79.7309 70.3386 79.7324 70.2943 79.7408 70.2105C79.7525 70.1271 79.7576 70.0015 79.7942 69.8449C79.8517 69.529 79.9809 69.0774 80.2279 68.5562C80.4735 68.0346 80.8564 67.452 81.3973 66.9096C81.9357 66.3671 82.6435 65.8778 83.4744 65.5652C84.3088 65.264 85.1649 65.1769 85.9262 65.2399C86.6897 65.3014 87.3591 65.4964 87.8843 65.7336C88.4106 65.97 88.8022 66.2295 89.0507 66.4327C89.1799 66.5278 89.2656 66.62 89.3285 66.676C89.3896 66.7342 89.4193 66.7668 89.4149 66.7719Z" fill="#0F0F0F"/>
<path d="M79.4762 76.5624C79.594 76.9775 83.5194 90.9945 85.2926 93.1064C87.0659 95.2182 89.8325 96.7078 92.8117 96.7078C95.791 96.7078 107.211 95.7855 108.559 94.5089C109.907 93.2319 112.809 88.1394 109.762 87.7064C106.715 87.2734 93.308 87.1318 93.308 87.1318C93.308 87.1318 92.8824 86.6351 92.8114 86.6351C92.7404 86.6351 93.4519 85.7955 93.308 85.0035C92.9775 83.1834 92.5277 75.0018 91.7474 72.3066C90.9671 69.611 88.6265 65.4972 84.867 66.2771C81.1074 67.057 78.4949 73.1045 79.4762 76.5624Z" fill="#FF725E"/>
<path d="M92.3546 87.9582C92.3616 87.9666 92.2305 88.0947 91.9718 88.2997C91.7134 88.5054 91.3261 88.7876 90.8174 89.0906C90.3101 89.3944 89.6799 89.7157 88.9501 90.0001C88.5859 90.1432 88.1965 90.2768 87.7866 90.3932C87.5787 90.4503 87.3785 90.5107 87.1512 90.5557C87.0359 90.5744 86.9111 90.5839 86.7815 90.5469C86.6618 90.5096 86.5187 90.4353 86.4763 90.2625C86.4459 90.0836 86.5645 89.9628 86.6483 89.8867C86.7413 89.8047 86.8364 89.7487 86.9276 89.6872C87.1106 89.5635 87.2972 89.4519 87.4821 89.3454C87.8513 89.1316 88.2188 88.9468 88.5731 88.7821C89.2813 88.4505 89.9379 88.199 90.4917 87.9966C91.0462 87.7957 91.4996 87.6493 91.8144 87.5523C92.1291 87.4557 92.3059 87.4099 92.31 87.422C92.3143 87.4348 92.1456 87.5044 91.8385 87.6226C91.4974 87.754 91.0615 87.9216 90.5392 88.1229C89.9939 88.3407 89.3457 88.6038 88.6485 88.9409C88.2993 89.1085 87.9381 89.2945 87.5757 89.5071C87.3946 89.6133 87.2116 89.7238 87.0326 89.8453C86.9429 89.9061 86.8478 89.9639 86.7746 90.0294C86.6992 90.0945 86.6479 90.1721 86.6633 90.2259C86.6714 90.2801 86.7486 90.3412 86.835 90.3647C86.9191 90.3895 87.0205 90.3859 87.1197 90.3691C87.3214 90.3299 87.5351 90.268 87.7353 90.2142C88.1405 90.1015 88.5259 89.9734 88.8871 89.8365C89.6107 89.5646 90.2395 89.2597 90.7501 88.9742C91.2617 88.6898 91.6574 88.4267 91.9275 88.2408C92.1987 88.0548 92.3451 87.9461 92.3546 87.9582Z" fill="#0F0F0F"/>
<path d="M94.4075 89.1967C94.4159 89.2022 94.3332 89.3571 94.1487 89.614C93.9654 89.8713 93.6781 90.2311 93.2707 90.626C92.8659 91.0227 92.3385 91.4509 91.7009 91.8477C91.381 92.0439 91.0344 92.2324 90.6648 92.4055C90.48 92.4922 90.2885 92.5731 90.0924 92.6514C89.8973 92.7221 89.6612 92.8238 89.3984 92.7034C89.2729 92.6456 89.1858 92.4801 89.2074 92.3469C89.2205 92.2141 89.2755 92.1083 89.3347 92.0124C89.465 91.8254 89.5935 91.6786 89.7256 91.5187C89.9877 91.2072 90.2527 90.9166 90.514 90.649C91.0377 90.1147 91.5457 89.6711 91.9879 89.3201C92.4296 88.968 92.8055 88.7078 93.0705 88.5361C93.3351 88.3641 93.4885 88.2803 93.4951 88.2902C93.5031 88.3022 93.3637 88.4069 93.1133 88.5969C92.8626 88.7865 92.501 89.0617 92.0735 89.4244C91.6453 89.7864 91.1516 90.2362 90.6403 90.7713C90.3852 91.0392 90.126 91.3291 89.8687 91.6383C89.7436 91.7906 89.6027 91.9571 89.4947 92.1134C89.3885 92.277 89.3435 92.4703 89.4888 92.5358C89.6272 92.6075 89.8409 92.5489 90.0228 92.4746C90.2153 92.3981 90.4038 92.3198 90.5857 92.2356C90.9499 92.068 91.2921 91.8858 91.6091 91.6973C92.2404 91.3155 92.7675 90.906 93.1777 90.5275C94.0031 89.7706 94.3764 89.173 94.4075 89.1967Z" fill="#0F0F0F"/>
<path d="M91.7474 72.3066C91.7474 72.3066 91.7771 72.3941 91.8243 72.5672C91.8759 72.7396 91.9374 72.9998 92.0054 73.3431C92.1442 74.0293 92.3045 75.0479 92.4626 76.3611C92.6222 77.6743 92.7825 79.2814 92.9567 81.1422C93.046 82.0722 93.1331 83.0666 93.2542 84.1148C93.2861 84.3765 93.3187 84.6419 93.3629 84.9072C93.423 85.1788 93.3981 85.4833 93.3099 85.7542C93.2246 86.0287 93.0881 86.286 92.9398 86.5315L92.8882 86.6212L92.8791 86.6395C92.8776 86.6428 92.8787 86.6399 92.8787 86.6399C92.8732 86.6377 92.9054 86.5908 92.8158 86.5623C92.8699 86.5722 92.8838 86.5908 92.9025 86.6022C92.9669 86.6531 93.0163 86.7047 93.0687 86.7574C93.1708 86.8631 93.2678 86.9715 93.3648 87.0831L93.3095 87.0571C96.7836 87.0963 100.776 87.1512 105.128 87.3122C106.216 87.3525 107.327 87.4059 108.457 87.4864C108.74 87.5117 109.023 87.5245 109.309 87.5611C109.591 87.5948 109.883 87.6098 110.173 87.7097C110.458 87.8023 110.733 87.9798 110.911 88.2382C111.091 88.4944 111.171 88.804 111.191 89.1053C111.228 89.7139 111.075 90.305 110.88 90.8697C110.68 91.4356 110.42 91.9802 110.126 92.5087C109.828 93.035 109.498 93.5481 109.115 94.0298C108.915 94.2673 108.737 94.5089 108.459 94.7047C108.183 94.8763 107.888 94.9755 107.593 95.0762C106.223 95.4931 104.832 95.7009 103.465 95.9041C102.096 96.0991 100.743 96.2492 99.4115 96.3791C98.0799 96.5065 96.77 96.6119 95.4854 96.6902C94.843 96.7294 94.2069 96.7623 93.5771 96.7821C92.9486 96.8041 92.3176 96.8008 91.7017 96.7265C89.2304 96.411 87.078 95.1541 85.5821 93.5507C85.401 93.3435 85.2103 93.1485 85.0683 92.9106C84.9944 92.7956 84.9105 92.6858 84.8461 92.568L84.6631 92.2122C84.4073 91.7456 84.2243 91.2603 84.0153 90.7962C83.6347 89.8541 83.2939 88.9413 82.9872 88.064C81.7644 84.5526 80.9237 81.6645 80.3381 79.6712C80.0563 78.6772 79.837 77.9027 79.6859 77.3691C79.6163 77.11 79.5629 76.9105 79.5245 76.7681C79.4893 76.6323 79.4762 76.5613 79.4762 76.5613C79.4762 76.5613 79.5022 76.6287 79.5431 76.7626C79.5856 76.9039 79.6453 77.1016 79.7225 77.3585C79.8817 77.8895 80.1126 78.6603 80.4087 79.65C81.0159 81.6359 81.8764 84.5182 83.1138 88.019C83.4242 88.8937 83.7679 89.8032 84.1507 90.7398C84.3597 91.1991 84.5449 91.6841 84.7978 92.1416L84.9793 92.4915C85.0427 92.6068 85.1228 92.7096 85.1942 92.8202C85.3281 93.046 85.5181 93.2396 85.6967 93.4427C87.1739 95.0173 89.297 96.2477 91.7218 96.5523C92.3264 96.624 92.942 96.6262 93.5705 96.6031C94.1978 96.5823 94.8324 96.5486 95.4733 96.5087C96.7554 96.4285 98.0631 96.3217 99.3924 96.1936C100.721 96.0629 102.073 95.9118 103.437 95.7167C104.798 95.5143 106.19 95.3042 107.534 94.895C107.819 94.7977 108.109 94.6977 108.354 94.5444C108.579 94.3899 108.778 94.1367 108.966 93.9108C109.34 93.4405 109.666 92.934 109.96 92.4157C110.25 91.8953 110.506 91.3591 110.701 90.8068C110.892 90.2563 111.037 89.681 111.002 89.1181C110.984 88.8392 110.911 88.565 110.756 88.3451C110.604 88.1236 110.371 87.9703 110.112 87.8857C109.856 87.7957 109.569 87.7781 109.287 87.7448C109.007 87.7082 108.722 87.6951 108.442 87.6694C107.316 87.5878 106.207 87.5329 105.12 87.4908C100.772 87.3221 96.7788 87.2566 93.3066 87.2043L93.2729 87.2039L93.2509 87.1786C93.1565 87.0692 93.0603 86.9605 92.9618 86.858C92.9131 86.8075 92.8615 86.7555 92.8132 86.7171C92.8026 86.7072 92.7876 86.7043 92.8063 86.7061C92.706 86.6754 92.74 86.6172 92.7356 86.6069L92.744 86.5821L92.7587 86.5524L92.8143 86.4565C92.9618 86.2142 93.0921 85.9694 93.1737 85.711C93.2572 85.4515 93.281 85.1909 93.2261 84.9296C93.1818 84.6591 93.1503 84.3923 93.1199 84.1295C93.0035 83.0772 92.9215 82.0828 92.8377 81.1521C92.6745 79.2906 92.5259 77.6831 92.3791 76.3699C92.2338 75.0563 92.0867 74.0374 91.9623 73.3504C91.9011 73.0064 91.8466 72.7454 91.8023 72.5716C91.7628 72.3981 91.7474 72.3066 91.7474 72.3066Z" fill="#0F0F0F"/>
<g opacity="0.3">
<path d="M88.8996 88.6672C88.2426 88.9223 87.6197 89.2809 87.0472 89.6711C86.891 89.7776 86.7537 89.9116 86.6567 90.0737C86.6183 90.1377 86.585 90.2153 86.6168 90.2823C86.641 90.3332 86.6955 90.3599 86.7504 90.3775C86.9082 90.4276 87.0718 90.4558 87.2372 90.4518C88.0234 90.4331 88.6554 90.0418 89.3102 89.7099C89.9452 89.3882 90.6077 89.1188 91.2174 88.7513C91.7123 88.453 92.1775 88.0801 92.5087 87.6116C92.5852 87.5033 92.4769 87.362 92.3528 87.4085C91.235 87.8286 89.9851 88.2455 88.8996 88.6672Z" fill="#333333"/>
</g>
<g opacity="0.8">
<path d="M92.6968 78.985L81.0522 81.9189L82.1227 85.3106L93.0321 82.6055L92.6968 78.985Z" fill="#FAFAFA"/>
</g>
<g opacity="0.8">
<path d="M101.755 87.3313L101.36 96.0219C102.58 95.8905 103.776 95.7295 104.944 95.5348L105.059 87.399L101.755 87.3313Z" fill="#FAFAFA"/>
</g>
<defs>
<clipPath id="clip0_4008_1733">
<rect width="18.4538" height="6.15126" fill="white" transform="translate(26.1429 88.4243)"/>
</clipPath>
</defs>
</svg>
