<svg width="24" height="24" viewBox="0 0 24 24" fill="none" xmlns="http://www.w3.org/2000/svg">
<path d="M15.75 10.5C15.75 10.6989 15.671 10.8897 15.5303 11.0304C15.3897 11.171 15.1989 11.25 15 11.25H9C8.80109 11.25 8.61032 11.171 8.46967 11.0304C8.32902 10.8897 8.25 10.6989 8.25 10.5C8.25 10.3011 8.32902 10.1104 8.46967 9.9697C8.61032 9.82905 8.80109 9.75003 9 9.75003H15C15.1989 9.75003 15.3897 9.82905 15.5303 9.9697C15.671 10.1104 15.75 10.3011 15.75 10.5ZM15 12.75H9C8.80109 12.75 8.61032 12.829 8.46967 12.9697C8.32902 13.1104 8.25 13.3011 8.25 13.5C8.25 13.6989 8.32902 13.8897 8.46967 14.0304C8.61032 14.171 8.80109 14.25 9 14.25H15C15.1989 14.25 15.3897 14.171 15.5303 14.0304C15.671 13.8897 15.75 13.6989 15.75 13.5C15.75 13.3011 15.671 13.1104 15.5303 12.9697C15.3897 12.829 15.1989 12.75 15 12.75ZM21.75 12C21.7504 13.6833 21.3149 15.3381 20.486 16.8032C19.6572 18.2683 18.4631 19.4938 17.02 20.3605C15.577 21.2272 13.9341 21.7055 12.2514 21.7489C10.5686 21.7923 8.9033 21.3993 7.4175 20.6082L4.22531 21.6722C3.96102 21.7604 3.6774 21.7731 3.40624 21.7092C3.13509 21.6452 2.88711 21.5069 2.69011 21.3099C2.49311 21.1129 2.35486 20.8649 2.29087 20.5938C2.22688 20.3226 2.23967 20.039 2.32781 19.7747L3.39187 16.5825C2.69639 15.2749 2.30793 13.8261 2.256 12.3459C2.20406 10.8658 2.49001 9.39328 3.09213 8.04015C3.69425 6.68703 4.59672 5.48885 5.73105 4.53658C6.86537 3.58431 8.20173 2.90298 9.63869 2.54429C11.0756 2.1856 12.5754 2.15899 14.0242 2.46647C15.473 2.77395 16.8327 3.40745 18.0001 4.31888C19.1675 5.2303 20.1119 6.3957 20.7616 7.72662C21.4114 9.05753 21.7494 10.519 21.75 12ZM20.25 12C20.2496 10.7345 19.9582 9.48606 19.3981 8.35123C18.838 7.2164 18.0244 6.22562 17.0201 5.45556C16.0159 4.6855 14.8479 4.15678 13.6067 3.91033C12.3654 3.66388 11.084 3.70628 9.86178 4.03428C8.63951 4.36227 7.50909 4.96705 6.55796 5.80183C5.60682 6.63662 4.86049 7.67902 4.37668 8.8484C3.89288 10.0178 3.68458 11.2828 3.7679 12.5455C3.85122 13.8083 4.22393 15.035 4.85719 16.1307C4.91034 16.2226 4.94334 16.3249 4.954 16.4306C4.96467 16.5363 4.95276 16.643 4.91906 16.7438L3.75 20.25L7.25625 19.081C7.33262 19.0549 7.41275 19.0416 7.49344 19.0416C7.62516 19.0418 7.7545 19.0767 7.86844 19.1428C9.12263 19.8685 10.5458 20.251 11.9948 20.2519C13.4438 20.2528 14.8674 19.8721 16.1225 19.1481C17.3776 18.424 18.4199 17.3821 19.1445 16.1273C19.869 14.8725 20.2503 13.449 20.25 12Z" fill="#0F0F0F"/>
</svg>
