<svg width="163" height="183" viewBox="0 0 163 183" fill="none" xmlns="http://www.w3.org/2000/svg">
<path d="M66.1866 46.87C66.1866 46.87 66.5036 30.4695 52.9937 22.1393H95.8122C95.8122 22.1393 108.054 32.1019 108.156 46.87H66.1866Z" fill="#EBEBEB"/>
<path d="M92.5468 28.1198C92.5468 28.1747 87.6559 28.2186 81.6135 28.2186C75.571 28.2186 70.6802 28.1747 70.6802 28.1198C70.6802 28.0649 75.571 28.0246 81.6135 28.0246C87.6559 28.0246 92.5468 28.0685 92.5468 28.1198Z" fill="#333333"/>
<path d="M97.2189 31.088C97.2189 31.1393 90.7391 31.1832 82.7469 31.1832C74.7546 31.1832 68.2748 31.1393 68.2748 31.088C68.2748 31.0368 74.7546 30.9892 82.7469 30.9892C90.7391 30.9892 97.2189 31.0331 97.2189 31.088Z" fill="#0F0F0F"/>
<path d="M99.6534 38.591C99.6534 38.6423 93.1736 38.6862 85.1814 38.6862C77.1891 38.6862 70.7057 38.6423 70.7057 38.591C70.7057 38.5398 77.1855 38.4959 85.1814 38.4959C93.1773 38.4959 99.6534 38.5398 99.6534 38.591Z" fill="#0F0F0F"/>
<path d="M84.529 34.5028C84.3336 34.5326 84.1362 34.5461 83.9386 34.5431L82.3205 34.5724C80.9538 34.5907 79.0696 34.6016 76.985 34.6016C74.9004 34.6016 73.0162 34.6016 71.6496 34.5724L70.0314 34.5431C69.8339 34.5461 69.6364 34.5326 69.441 34.5028C69.6365 34.4742 69.834 34.462 70.0314 34.4662L71.6496 34.4369C73.0162 34.4369 74.9004 34.4077 76.985 34.4077C79.0696 34.4077 80.9538 34.4077 82.3205 34.4369L83.9386 34.4662C84.1361 34.462 84.3335 34.4742 84.529 34.5028Z" fill="#0F0F0F"/>
<path d="M97.2189 34.5028C97.0751 34.5327 96.9284 34.5462 96.7816 34.5431L95.5862 34.5724C94.5803 34.5907 93.1845 34.6016 91.6466 34.6016C90.1086 34.6016 88.7128 34.6016 87.7069 34.5724L86.5116 34.5431C86.3647 34.5462 86.218 34.5327 86.0742 34.5028C86.2184 34.4761 86.3649 34.4639 86.5116 34.4662L87.7069 34.4369C88.7128 34.4369 90.1086 34.4077 91.6466 34.4077C93.1845 34.4077 94.5621 34.4077 95.5862 34.4369L96.7816 34.4662C96.9282 34.462 97.0749 34.4743 97.2189 34.5028Z" fill="#0F0F0F"/>
<path d="M87.215 42.6134C87.0184 42.6433 86.8197 42.6568 86.6209 42.6536L85.0064 42.6829C83.6398 42.6829 81.7519 42.7122 79.671 42.7122C77.59 42.7122 75.6985 42.7122 74.3319 42.6829L72.7174 42.6536C72.5186 42.6568 72.3199 42.6433 72.1234 42.6134C72.32 42.5847 72.5187 42.5724 72.7174 42.5768L74.3319 42.5475C75.6985 42.5475 77.5864 42.5182 79.671 42.5182C81.7556 42.5182 83.6398 42.5182 85.0064 42.5475L86.6209 42.5768C86.8196 42.5724 87.0183 42.5847 87.215 42.6134Z" fill="#0F0F0F"/>
<path d="M99.9049 42.6134C99.7611 42.6433 99.6143 42.6568 99.4675 42.6536L98.2721 42.6829C97.2626 42.6829 95.8705 42.7122 94.3325 42.7122C92.7946 42.7122 91.417 42.7122 90.3892 42.6829L89.1939 42.6536C89.047 42.6568 88.9003 42.6433 88.7565 42.6134C88.9007 42.5867 89.0472 42.5744 89.1939 42.5768L90.3892 42.5475C91.3987 42.5475 92.7909 42.5182 94.3325 42.5182C95.8741 42.5182 97.2481 42.5182 98.2721 42.5475L99.4675 42.5768C99.6141 42.5744 99.7606 42.5867 99.9049 42.6134Z" fill="#0F0F0F"/>
<path d="M57.4326 46.4052H120.605L124.046 156.315C124.069 157.052 123.947 157.787 123.688 158.477C123.428 159.167 123.036 159.799 122.533 160.337C122.03 160.875 121.426 161.308 120.757 161.611C120.087 161.915 119.364 162.082 118.63 162.105H52.7641C51.8361 162.105 50.9435 161.747 50.2712 161.105C49.5989 160.462 49.1983 159.585 49.1525 158.654L46.1167 96.5911C46.1167 96.5911 27.3806 89.7615 27.6977 68.9251C27.6977 68.9251 28.5505 46.4052 57.4326 46.4052Z" fill="#0F0F0F"/>
<path d="M60.8621 161.94L58.1069 46.4052H122.898L124.067 157.08C124.108 158.368 123.637 159.619 122.759 160.559C121.881 161.498 120.667 162.049 119.384 162.09H119.217L60.8621 161.94Z" fill="#333333"/>
<path d="M63.4605 53.0993L64.7725 106.894H117.54L116.83 53.0993H63.4605Z" fill="#0F0F0F"/>
<path d="M69.2989 60.0606C71.8756 60.7597 75.13 60.4632 77.7759 60.3351C77.9692 60.3351 78.1546 60.258 78.2913 60.1207C78.428 59.9834 78.5048 59.7972 78.5048 59.6031C78.5048 59.409 78.428 59.2228 78.2913 59.0855C78.1546 58.9482 77.9692 58.8711 77.7759 58.8711C75.13 58.7393 71.8719 58.4429 69.2989 59.1456C69.1758 59.1821 69.072 59.2662 69.0105 59.3794C68.949 59.4926 68.9348 59.6257 68.9709 59.7495C68.9944 59.8273 69.0367 59.898 69.0939 59.9555C69.1511 60.0129 69.2215 60.0553 69.2989 60.0789V60.0606Z" fill="#E0E0E0"/>
<path d="M82.2804 59.9545C84.8096 60.6023 88.0787 60.4852 90.6626 60.2363C90.8559 60.2363 91.0413 60.1592 91.178 60.0219C91.3147 59.8846 91.3915 59.6984 91.3915 59.5043C91.3915 59.3101 91.3147 59.124 91.178 58.9867C91.0413 58.8494 90.8559 58.7723 90.6626 58.7723C88.0787 58.5197 84.8096 58.4063 82.2804 59.0541C82.2212 59.0721 82.1662 59.1016 82.1185 59.141C82.0707 59.1803 82.0312 59.2288 82.0021 59.2835C81.9729 59.3382 81.9549 59.3982 81.9488 59.4599C81.9428 59.5217 81.949 59.584 81.967 59.6434C81.9891 59.7178 82.0293 59.7856 82.0841 59.8405C82.1388 59.8955 82.2062 59.9359 82.2804 59.9581V59.9545Z" fill="#E0E0E0"/>
<path d="M95.087 59.7239C96.3589 60.1118 97.7328 60.046 99.0521 60.0679C100.399 60.1485 101.751 60.1228 103.094 59.9911C103.753 59.8959 103.753 58.743 103.094 58.6515C101.751 58.5167 100.399 58.4898 99.0521 58.571C97.7328 58.5929 96.3589 58.5271 95.087 58.915C94.9996 58.9403 94.9228 58.9934 94.8682 59.0664C94.8135 59.1393 94.7839 59.2282 94.7839 59.3195C94.7839 59.4108 94.8135 59.4996 94.8682 59.5725C94.9228 59.6455 94.9996 59.6986 95.087 59.7239Z" fill="#E0E0E0"/>
<path d="M106.953 59.7971C107.913 59.9373 108.881 60.0119 109.851 60.0203C110.813 60.0423 111.851 60.1997 112.784 59.9325C112.915 59.8927 113.03 59.8116 113.112 59.7012C113.193 59.5908 113.237 59.4569 113.237 59.3194C113.237 59.182 113.193 59.0481 113.112 58.9377C113.03 58.8273 112.915 58.7462 112.784 58.7064C111.851 58.4392 110.813 58.5966 109.851 58.6186C108.881 58.6264 107.913 58.7022 106.953 58.8455C106.852 58.8768 106.763 58.9398 106.7 59.0255C106.637 59.1111 106.603 59.2148 106.603 59.3213C106.603 59.4278 106.637 59.5314 106.7 59.6171C106.763 59.7027 106.852 59.7658 106.953 59.7971Z" fill="#E0E0E0"/>
<path d="M80.0828 113.292H64.7908V124.268H80.0828V113.292Z" fill="#B7E2F5"/>
<path d="M67.5569 113.292H64.7908V124.268H67.5569V113.292Z" fill="#0F0F0F"/>
<path d="M98.8079 113.292H83.5159V124.268H98.8079V113.292Z" fill="#B7E2F5"/>
<path d="M86.1253 113.292H83.3591V124.268H86.1253V113.292Z" fill="#0F0F0F"/>
<path d="M117.537 113.292H102.245V124.268H117.537V113.292Z" fill="#B7E2F5"/>
<path d="M104.573 113.292H101.807V124.268H104.573V113.292Z" fill="#0F0F0F"/>
<path d="M117.537 127.895H102.245V138.871H117.537V127.895Z" fill="#B7E2F5"/>
<path d="M105.095 127.895H102.245V138.871H105.095V127.895Z" fill="#0F0F0F"/>
<path d="M80.0828 127.895H64.7908V138.871H80.0828V127.895Z" fill="#B7E2F5"/>
<path d="M67.5569 127.873H64.7908V138.849H67.5569V127.873Z" fill="#0F0F0F"/>
<path d="M80.0828 142.352H64.7908V153.328H80.0828V142.352Z" fill="#B7E2F5"/>
<path opacity="0.3" d="M80.0828 142.352H64.7908V153.328H80.0828V142.352Z" fill="#0F0F0F"/>
<path d="M67.5569 142.352H64.7908V153.328H67.5569V142.352Z" fill="#0F0F0F"/>
<path d="M98.7241 127.895H83.432V138.871H98.7241V127.895Z" fill="#B7E2F5"/>
<path d="M86.1981 127.873H83.432V138.849H86.1981V127.873Z" fill="#0F0F0F"/>
<path d="M98.8079 142.352H83.5159V153.328H98.8079V142.352Z" fill="#B7E2F5"/>
<path opacity="0.3" d="M98.8079 142.352H83.5159V153.328H98.8079V142.352Z" fill="#0F0F0F"/>
<path d="M86.282 142.352H83.5159V153.328H86.282V142.352Z" fill="#0F0F0F"/>
<path d="M117.537 142.352H102.245V153.328H117.537V142.352Z" fill="#E0E0E0"/>
<path d="M105.011 142.352H102.245V153.328H105.011V142.352Z" fill="#0F0F0F"/>
<path d="M55.8145 162.109C55.5521 162.109 54.5936 136.218 53.6716 104.281C52.7495 72.3436 52.2138 46.4198 52.4762 46.4125C52.7386 46.4051 53.6971 72.296 54.6191 104.24C55.5412 136.185 56.0769 162.101 55.8145 162.109Z" fill="#333333"/>
<path d="M117.46 100.767V102.74L123.51 104.251L123.477 101.21L117.46 100.767Z" fill="#333333"/>
<path d="M48.9265 154.013L55.5157 151.685L55.3735 148.783L49.0176 150.971L48.9265 154.013Z" fill="#0F0F0F"/>
<path d="M113.054 56.4525L59.6377 52.5473C58.9136 52.4966 58.2389 52.1602 57.761 51.6116C57.283 51.063 57.0406 50.3468 57.0866 49.6193L59.4773 16.661C59.5279 15.9338 59.8628 15.2563 60.4091 14.7762C60.9553 14.2962 61.6685 14.0528 62.3929 14.099L115.853 17.9896C116.581 18.0412 117.258 18.3809 117.737 18.9341C118.215 19.4873 118.455 20.2086 118.404 20.9395L116.013 53.8978C115.988 54.2596 115.893 54.6128 115.732 54.9374C115.571 55.262 115.348 55.5515 115.075 55.7894C114.803 56.0274 114.486 56.209 114.144 56.3241C113.801 56.4391 113.44 56.4852 113.08 56.4598L113.054 56.4525Z" fill="#B7E2F5"/>
<path d="M113.054 56.4525C113.218 56.4525 113.379 56.4525 113.543 56.4525C114.021 56.401 114.476 56.2215 114.862 55.9328C115.173 55.7008 115.432 55.4049 115.62 55.0647C115.809 54.7246 115.923 54.348 115.955 53.9601C116.021 53.0304 116.097 51.958 116.181 50.7539L117.639 30.3421C117.792 28.1876 117.954 25.9318 118.124 23.5748C118.167 22.9892 118.207 22.3926 118.251 21.796C118.354 21.2048 118.339 20.599 118.207 20.0136C118.042 19.4304 117.682 18.9223 117.187 18.5752C116.939 18.3987 116.663 18.2651 116.371 18.1799C116.069 18.1105 115.761 18.07 115.452 18.0591L99.3402 16.8916L62.4257 14.1795C62.0306 14.1505 61.634 14.2107 61.265 14.3558C60.8961 14.5008 60.5642 14.727 60.2937 15.0177C60.0234 15.3066 59.8215 15.6532 59.7033 16.0315C59.601 16.4185 59.5471 16.8169 59.5429 17.2173C59.4215 18.8424 59.3 20.4552 59.1785 22.0559C58.9355 25.2596 58.7072 28.4121 58.4933 31.5133C58.0414 37.7133 57.6041 43.6974 57.1886 49.3924C57.0933 50.084 57.2655 50.7861 57.6697 51.3542C58.0677 51.9136 58.6659 52.2966 59.3389 52.4229C60.6982 52.5583 62.0758 52.6315 63.417 52.7413L71.2343 53.3159L85.2726 54.3554L105.594 55.8706L111.115 56.2952L112.573 56.4196L113.061 56.4635C113.061 56.4635 112.897 56.4635 112.573 56.4379L111.115 56.3427L105.59 55.9584L85.2617 54.4944L71.2343 53.4916L63.4133 52.9243C62.0685 52.8182 60.7164 52.7486 59.317 52.6095C58.6005 52.4762 57.9632 52.0696 57.5385 51.4749C57.1128 50.873 56.9293 50.1318 57.0246 49.3997C57.4365 43.7011 57.8702 37.7207 58.3184 31.517C58.5419 28.4157 58.7691 25.2632 58.9999 22.0595C59.1165 20.4564 59.238 18.8436 59.3644 17.221C59.371 16.8058 59.4273 16.3929 59.532 15.9912C59.7253 15.3796 60.1181 14.8513 60.6471 14.4914C61.176 14.1314 61.8103 13.961 62.4476 14.0075L99.362 16.7159L115.47 17.9018C115.79 17.9131 116.107 17.956 116.418 18.0299C116.879 18.1636 117.3 18.4112 117.642 18.75C117.984 19.0888 118.236 19.5081 118.375 19.9697C118.463 20.2712 118.499 20.5856 118.481 20.8993C118.481 21.2067 118.441 21.5032 118.419 21.807C118.375 22.4036 118.331 23.0001 118.288 23.5857C118.115 25.9403 117.95 28.1949 117.792 30.3494C117.154 38.9651 116.637 45.9374 116.279 50.7612C116.188 51.9654 116.108 53.0304 116.039 53.9637C116.003 54.3592 115.883 54.7423 115.687 55.0871C115.491 55.4319 115.223 55.7303 114.902 55.9621C114.511 56.2514 114.048 56.4274 113.564 56.4708C113.443 56.4818 113.321 56.4818 113.2 56.4708L113.054 56.4525Z" fill="#0F0F0F"/>
<path d="M63.1291 38.8516L62.8922 42.1456L62.5569 42.12L62.7719 39.1371L62.0029 39.0822L62.0248 38.7821L63.1291 38.8516Z" fill="#FAFAFA"/>
<path d="M66.2888 42.0907L66.2633 42.3908L63.9709 42.2225V41.9845L65.4287 40.7475C65.8223 40.4071 65.9098 40.1948 65.9244 39.9679C65.9535 39.6019 65.7021 39.3347 65.1955 39.2981C65.0297 39.2742 64.8607 39.2888 64.7015 39.3408C64.5423 39.3928 64.3971 39.4809 64.2771 39.5982L64.0548 39.375C64.2125 39.2261 64.4013 39.1143 64.6075 39.0478C64.8136 38.9814 65.0319 38.9618 65.2465 38.9907C65.9098 39.0383 66.307 39.4079 66.2669 39.9569C66.2432 40.1566 66.1761 40.3487 66.0703 40.5194C65.9645 40.6902 65.8226 40.8355 65.6547 40.9451L64.4666 41.9589L66.2888 42.0907Z" fill="#FAFAFA"/>
<path d="M69.7583 41.7796L69.1059 41.732L69.0403 42.5958L68.705 42.5702L68.767 41.7064L66.9229 41.5746V41.3294L68.8144 39.2798L69.1788 39.3054L67.3566 41.3038L68.7779 41.4099L68.8326 40.6487L69.1606 40.6706L69.1059 41.4319L69.7583 41.4795V41.7796Z" fill="#FAFAFA"/>
<path d="M74.7694 42.1456L74.117 42.098L74.0514 42.9618L73.7161 42.9362L73.7781 42.0761L71.934 41.9406V41.6954L73.8255 39.6458L74.1899 39.6751L72.3677 41.6698L73.789 41.7759L73.8437 41.0147L74.1717 41.0403L74.1134 41.7979L74.7694 41.8455V42.1456Z" fill="#FAFAFA"/>
<path d="M77.6339 42.2517C77.5939 42.8117 77.1747 43.218 76.3766 43.1594C75.9452 43.1444 75.5363 42.962 75.2359 42.6507L75.4181 42.3981C75.6723 42.6715 76.0228 42.8343 76.3948 42.852C76.9488 42.8922 77.2622 42.6397 77.2914 42.2408C77.3205 41.8418 77.08 41.538 76.2491 41.4758L75.553 41.4246L75.8409 39.7922L77.6303 39.924L77.6084 40.2241L76.1142 40.1143L75.9247 41.1501L76.3475 41.183C77.3315 41.2526 77.6777 41.6698 77.6339 42.2517Z" fill="#FAFAFA"/>
<path d="M80.8665 42.475C80.8442 42.7444 80.7167 42.9941 80.512 43.1696C80.3072 43.3451 80.0416 43.4322 79.7732 43.412H79.6857C78.8147 43.3497 78.3883 42.7092 78.4648 41.6735C78.545 40.5572 79.1937 40.0191 80.0829 40.085C80.3533 40.0924 80.6165 40.1734 80.8446 40.3193L80.6879 40.5828C80.504 40.4565 80.2875 40.3866 80.0647 40.3815C79.3577 40.3302 78.873 40.7475 78.8074 41.6405V41.9114C78.9141 41.7368 79.0692 41.5974 79.2538 41.5103C79.4383 41.4231 79.6442 41.3921 79.8461 41.4209C80.1056 41.412 80.3582 41.506 80.5492 41.6828C80.7402 41.8595 80.8542 42.1047 80.8665 42.3652C80.8701 42.4017 80.8701 42.4385 80.8665 42.475ZM80.5349 42.475C80.5677 42.0431 80.2688 41.743 79.7659 41.7064C79.668 41.6878 79.5674 41.6888 79.4699 41.7093C79.3725 41.7298 79.28 41.7694 79.1977 41.8259C79.1155 41.8823 79.0451 41.9544 78.9906 42.0382C78.9362 42.1219 78.8987 42.2156 78.8803 42.314C78.8803 42.314 78.8803 42.3469 78.8803 42.3615C78.8511 42.7275 79.1281 43.0935 79.693 43.1301C79.7875 43.1464 79.8843 43.1438 79.9779 43.1224C80.0714 43.101 80.1598 43.0613 80.238 43.0055C80.3162 42.9498 80.3827 42.879 80.4336 42.7974C80.4846 42.7158 80.519 42.6249 80.5349 42.5299C80.5366 42.5068 80.5366 42.4835 80.5349 42.4604V42.475Z" fill="#FAFAFA"/>
<path d="M85.3383 42.841C85.2982 43.39 84.8718 43.7816 84.0809 43.7231C83.6484 43.7082 83.2383 43.5259 82.9366 43.2143L83.1188 42.9618C83.3766 43.2343 83.729 43.3968 84.1028 43.4156C84.6458 43.4522 84.9629 43.2216 84.9921 42.8154C85.0212 42.4091 84.7624 42.1419 84.1575 42.0834L83.9242 42.0651L83.9425 41.8162L84.9301 40.7438L83.2573 40.623L83.2792 40.3229L85.382 40.4766L85.3638 40.7145L84.3543 41.8125C85.054 41.9187 85.3747 42.314 85.3383 42.841Z" fill="#FAFAFA"/>
<path d="M88.6182 43.0423C88.5977 43.313 88.4711 43.5645 88.2661 43.7416C88.0611 43.9186 87.7945 44.0067 87.5249 43.9866C87.4922 43.9902 87.4592 43.9902 87.4265 43.9866C86.5591 43.9244 86.1291 43.2839 86.2056 42.2481C86.2858 41.1501 86.9345 40.5938 87.8237 40.6596C88.0941 40.6671 88.3573 40.748 88.5854 40.8939L88.4287 41.1574C88.2455 41.0296 88.0285 40.9595 87.8055 40.9561C87.0985 40.9049 86.6138 41.3221 86.5482 42.2151V42.486C86.6549 42.3114 86.81 42.172 86.9945 42.0849C87.1791 41.9978 87.385 41.9667 87.5868 41.9955C87.8492 41.9846 88.1052 42.0787 88.2985 42.2571C88.4919 42.4355 88.6069 42.6837 88.6182 42.9471C88.6211 42.9788 88.6211 43.0106 88.6182 43.0423ZM88.2866 43.0423C88.3194 42.6104 88.0205 42.3103 87.5176 42.2737C87.4197 42.2551 87.3192 42.2561 87.2217 42.2766C87.1242 42.2971 87.0317 42.3367 86.9494 42.3932C86.8672 42.4496 86.7968 42.5217 86.7423 42.6055C86.6879 42.6892 86.6504 42.7829 86.632 42.8812C86.632 42.8812 86.632 42.9142 86.632 42.9288C86.6028 43.2948 86.8798 43.6608 87.4447 43.6974C87.5392 43.7137 87.6361 43.7111 87.7296 43.6897C87.8231 43.6683 87.9115 43.6286 87.9897 43.5728C88.0679 43.517 88.1344 43.4463 88.1853 43.3647C88.2363 43.2831 88.2707 43.1922 88.2866 43.0972C88.2884 43.074 88.2884 43.0508 88.2866 43.0277V43.0423Z" fill="#FAFAFA"/>
<path d="M91.7999 40.9598L91.7816 41.1977L90.1927 44.1257L89.8282 44.1L91.3917 41.216L89.7116 41.0915L89.6642 41.7064L89.3326 41.6844L89.4018 40.7694L91.7999 40.9598Z" fill="#FAFAFA"/>
<path d="M96.4684 41.3001L96.4502 41.5417L94.8612 44.4697L94.4967 44.4441L96.0566 41.56L94.3765 41.4356L94.3327 42.0504L94.0011 42.0248L94.0667 41.1098L96.4684 41.3001Z" fill="#FAFAFA"/>
<path d="M99.5114 43.9061C99.4713 44.488 98.9538 44.8101 98.1739 44.7552C97.394 44.7003 96.9385 44.3013 96.9822 43.7194C96.9946 43.533 97.0694 43.3564 97.1944 43.2182C97.3195 43.0799 97.4875 42.9883 97.671 42.9581C97.5218 42.9003 97.3956 42.7948 97.312 42.6579C97.2283 42.521 97.1918 42.3603 97.2082 42.2005C97.2482 41.6661 97.7257 41.366 98.4181 41.4136C99.1105 41.4612 99.5479 41.8345 99.5114 42.3689C99.5037 42.5302 99.4431 42.6845 99.3389 42.8077C99.2347 42.9308 99.0929 43.0159 98.9356 43.0496C99.1138 43.1061 99.2677 43.2215 99.3722 43.377C99.4768 43.5325 99.5259 43.719 99.5114 43.9061ZM99.1689 43.8768C99.198 43.4705 98.87 43.1924 98.2905 43.1448C97.7111 43.0972 97.3539 43.3278 97.3248 43.734C97.2956 44.1403 97.6163 44.4185 98.1958 44.466C98.7753 44.5136 99.1397 44.283 99.1689 43.8768ZM98.3088 42.8776C98.819 42.9142 99.1397 42.7056 99.1652 42.3506C99.1907 41.9955 98.8846 41.7284 98.3962 41.6954C97.9079 41.6625 97.5726 41.8601 97.5471 42.2261C97.5216 42.5921 97.8022 42.8447 98.3088 42.8776Z" fill="#FAFAFA"/>
<path d="M102.733 43.3827C102.653 44.499 102.004 45.037 101.115 44.9711C100.845 44.9602 100.583 44.8795 100.353 44.7369L100.506 44.4734C100.692 44.5991 100.909 44.669 101.133 44.6747C101.837 44.7259 102.321 44.3087 102.387 43.412V43.1448C102.28 43.3199 102.124 43.4598 101.939 43.5469C101.754 43.6341 101.547 43.6648 101.345 43.6352C101.082 43.6461 100.826 43.5521 100.633 43.3736C100.44 43.1952 100.325 42.9471 100.313 42.6836C100.31 42.6459 100.31 42.6079 100.313 42.5702C100.336 42.3011 100.464 42.052 100.669 41.8767C100.873 41.7014 101.138 41.6139 101.407 41.6332H101.49C102.391 41.7064 102.817 42.3469 102.733 43.3827ZM102.318 42.6946C102.343 42.3286 102.07 41.9626 101.505 41.9297C101.315 41.8967 101.119 41.9411 100.961 42.0529C100.803 42.1648 100.696 42.335 100.663 42.5262C100.662 42.5457 100.662 42.5653 100.663 42.5848C100.63 43.0167 100.929 43.3168 101.432 43.3534C101.629 43.3934 101.833 43.3534 102.001 43.2423C102.168 43.1311 102.285 42.9579 102.325 42.7605V42.6946H102.318Z" fill="#FAFAFA"/>
<path d="M86.9297 46.3536L86.8263 47.7809L113.015 49.6939L113.119 48.2666L86.9297 46.3536Z" fill="#FAFAFA"/>
<path d="M99.4846 50.1362L99.3812 51.5635L112.812 52.5446L112.915 51.1173L99.4846 50.1362Z" fill="#FAFAFA"/>
<path d="M61.7929 29.4693L61.4574 34.0906C61.3848 35.0905 62.1332 35.9602 63.1288 36.0331L70.5111 36.5737C71.5068 36.6466 72.3728 35.8951 72.4454 34.8951L72.7809 30.2738C72.8535 29.2739 72.1052 28.4042 71.1095 28.3313L63.7272 27.7907C62.7315 27.7178 61.8655 28.4693 61.7929 29.4693Z" fill="#85A3B0"/>
<path d="M61.4963 33.6141L61.5364 33.0871L67.1926 33.5007C67.3479 33.5168 67.5048 33.502 67.6545 33.4572C67.8041 33.4124 67.9434 33.3384 68.0646 33.2395C68.1857 33.1406 68.2863 33.0187 68.3605 32.8808C68.4348 32.7429 68.4813 32.5916 68.4973 32.4356C68.5133 32.2797 68.4986 32.122 68.454 31.9718C68.4094 31.8215 68.3357 31.6816 68.2372 31.5599C68.1388 31.4382 68.0174 31.3372 67.88 31.2627C67.7427 31.1881 67.5921 31.1414 67.4368 31.1253H67.3821L61.7259 30.7118L61.7624 30.1811L67.4222 30.5946C67.8649 30.642 68.2719 30.8603 68.5574 31.2033C68.8429 31.5464 68.9845 31.9874 68.9523 32.4333C68.9201 32.8792 68.7167 33.2951 68.385 33.5933C68.0533 33.8915 67.6192 34.0485 67.1744 34.0314L61.4963 33.6141Z" fill="#B7E2F5"/>
<path d="M68.7443 32.1457L68.7054 32.675L72.5871 32.9626L72.626 32.4333L68.7443 32.1457Z" fill="#B7E2F5"/>
<path d="M63.7146 20.9598L63.5378 23.3946L91.7983 25.4638L91.9751 23.0291L63.7146 20.9598Z" fill="#FAFAFA"/>
<path d="M106.177 42.0102L105.937 45.3042L105.601 45.2822L105.816 42.2993L105.047 42.2408L105.069 41.9406L106.177 42.0102Z" fill="#FAFAFA"/>
<path d="M109.322 45.2383L109.3 45.5384L107.008 45.3737V45.1322L108.466 43.8951C108.859 43.5584 108.947 43.3424 108.965 43.1155C108.991 42.7495 108.743 42.4823 108.236 42.4457C108.071 42.4239 107.902 42.4396 107.743 42.4915C107.584 42.5434 107.439 42.6303 107.318 42.7458L107.106 42.5116C107.264 42.3627 107.453 42.2509 107.659 42.1845C107.865 42.118 108.084 42.0985 108.298 42.1273C108.961 42.1749 109.359 42.5445 109.319 43.0935C109.297 43.4083 109.176 43.6828 108.706 44.0817L107.518 45.0992L109.322 45.2383Z" fill="#FAFAFA"/>
<path d="M112.3 44.8137C112.26 45.3591 111.833 45.7544 111.046 45.6958C110.612 45.6811 110.201 45.4989 109.898 45.1871L110.08 44.9309C110.207 45.068 110.36 45.1787 110.529 45.2565C110.699 45.3344 110.882 45.378 111.068 45.3847C111.607 45.425 111.924 45.1944 111.957 44.7881C111.99 44.3819 111.728 44.1147 111.119 44.0561H110.886L110.904 43.8072L111.895 42.7349L110.222 42.6141L110.244 42.314L112.343 42.4677V42.7056L111.334 43.8036C112.015 43.8914 112.34 44.2867 112.3 44.8137Z" fill="#FAFAFA"/>
</svg>
